<svg width="116" height="20" viewBox="0 0 116 20" fill="none" xmlns="http://www.w3.org/2000/svg">
<path fill-rule="evenodd" clip-rule="evenodd" d="M1 9.90316C1 14.3777 4.24975 18.0984 8.5 18.8529V12.3527H6.25V9.85291H8.5V7.85266C8.5 5.60266 9.94975 4.35316 12.0002 4.35316C12.6497 4.35316 13.3503 4.45291 13.9998 4.55266V6.85291H12.85C11.7498 6.85291 11.5 7.40266 11.5 8.10316V9.85291H13.9L13.5002 12.3527H11.5V18.8529C15.7502 18.0984 19 14.3784 19 9.90316C19 4.92541 14.95 0.852905 10 0.852905C5.05 0.852905 1 4.92541 1 9.90316Z" fill="white"/>
<path d="M51.7029 4.11415C51.0071 4.42248 50.2596 4.63082 49.4737 4.72498C50.2846 4.23981 50.8912 3.4762 51.1804 2.57665C50.4186 3.02914 49.5849 3.34765 48.7154 3.51832C48.1307 2.89404 47.3563 2.48025 46.5124 2.34121C45.6684 2.20217 44.8022 2.34564 44.0481 2.74936C43.2941 3.15308 42.6944 3.79445 42.3422 4.5739C41.99 5.35335 41.905 6.22727 42.1004 7.05998C40.5568 6.98248 39.0468 6.58127 37.6683 5.8824C36.2898 5.18353 35.0736 4.20262 34.0987 3.00332C33.7654 3.57832 33.5738 4.24498 33.5738 4.95498C33.5734 5.59415 33.7308 6.22352 34.032 6.78726C34.3332 7.351 34.7689 7.83168 35.3004 8.18665C34.684 8.16704 34.0811 8.00047 33.5421 7.70082V7.75082C33.542 8.64727 33.8521 9.51613 34.4197 10.21C34.9874 10.9038 35.7776 11.3799 36.6562 11.5575C36.0844 11.7122 35.4849 11.735 34.9029 11.6242C35.1508 12.3955 35.6337 13.07 36.2841 13.5533C36.9344 14.0365 37.7195 14.3043 38.5296 14.3192C37.1544 15.3987 35.4562 15.9842 33.7079 15.9816C33.3982 15.9817 33.0888 15.9636 32.7812 15.9275C34.5558 17.0685 36.6215 17.674 38.7312 17.6716C45.8729 17.6716 49.7771 11.7566 49.7771 6.62665C49.7771 6.45998 49.7729 6.29165 49.7654 6.12498C50.5248 5.57579 51.1803 4.89573 51.7013 4.11665L51.7029 4.11415Z" fill="white"/>
<g clip-path="url(#clip0_293_7158)">
<path d="M83.5829 5.4224C83.4696 5.01843 83.249 4.65269 82.9445 4.36407C82.6314 4.06657 82.2477 3.85376 81.8295 3.74573C80.2645 3.33323 73.9945 3.33323 73.9945 3.33323C71.3806 3.30349 68.7674 3.4343 66.1695 3.7249C65.7514 3.84091 65.3683 4.05847 65.0545 4.35823C64.7462 4.6549 64.5229 5.02073 64.4062 5.42157C64.1259 6.93135 63.9898 8.46435 63.9995 9.9999C63.9895 11.5341 64.1254 13.0666 64.4062 14.5782C64.5204 14.9774 64.7429 15.3416 65.052 15.6357C65.3612 15.9299 65.7462 16.1424 66.1695 16.2549C67.7554 16.6666 73.9945 16.6666 73.9945 16.6666C76.6118 16.6963 79.2283 16.5655 81.8295 16.2749C82.2477 16.1669 82.6314 15.9541 82.9445 15.6566C83.2489 15.368 83.4693 15.0022 83.582 14.5982C83.8696 13.089 84.0094 11.5554 83.9995 10.0191C84.0212 8.47624 83.8815 6.93537 83.5829 5.42157V5.4224ZM72.0012 12.8532V7.1474L77.2179 10.0007L72.0012 12.8532Z" fill="white"/>
</g>
<path d="M105.498 7.51837C103.937 7.51837 102.663 8.7921 102.663 10.3529C102.663 11.9137 103.937 13.1874 105.498 13.1874C107.059 13.1874 108.332 11.9137 108.332 10.3529C108.332 8.7921 107.059 7.51837 105.498 7.51837ZM113.999 10.3529C113.999 9.17911 114.01 8.01595 113.944 6.84428C113.878 5.48337 113.568 4.27555 112.573 3.28038C111.575 2.28308 110.37 1.97474 109.009 1.90883C107.835 1.84291 106.672 1.85354 105.5 1.85354C104.326 1.85354 103.163 1.84291 101.991 1.90883C100.63 1.97474 99.4226 2.2852 98.4275 3.28038C97.4302 4.27768 97.1218 5.48337 97.0559 6.84428C96.99 8.01808 97.0006 9.18124 97.0006 10.3529C97.0006 11.5246 96.99 12.6899 97.0559 13.8615C97.1218 15.2224 97.4323 16.4303 98.4275 17.4254C99.4248 18.4227 100.63 18.7311 101.991 18.797C103.165 18.8629 104.328 18.8523 105.5 18.8523C106.674 18.8523 107.837 18.8629 109.009 18.797C110.37 18.7311 111.577 18.4206 112.573 17.4254C113.57 16.4281 113.878 15.2224 113.944 13.8615C114.012 12.6899 113.999 11.5267 113.999 10.3529ZM105.498 14.7142C103.084 14.7142 101.137 12.7664 101.137 10.3529C101.137 7.9394 103.084 5.99158 105.498 5.99158C107.911 5.99158 109.859 7.9394 109.859 10.3529C109.859 12.7664 107.911 14.7142 105.498 14.7142ZM110.038 6.83153C109.474 6.83153 109.019 6.37647 109.019 5.81296C109.019 5.24946 109.474 4.7944 110.038 4.7944C110.601 4.7944 111.056 5.24946 111.056 5.81296C111.057 5.94677 111.03 6.0793 110.979 6.20295C110.928 6.3266 110.853 6.43895 110.758 6.53357C110.664 6.62819 110.551 6.70321 110.428 6.75433C110.304 6.80546 110.172 6.83169 110.038 6.83153Z" fill="white"/>
<defs>
<clipPath id="clip0_293_7158">
<rect width="20" height="20" fill="white" transform="translate(64)"/>
</clipPath>
</defs>
</svg>
