<svg width="396" height="132" viewBox="0 0 396 132" fill="none" xmlns="http://www.w3.org/2000/svg">
<rect y="12.9839" width="103.529" height="103.88" rx="28.9317" fill="#3692FF"/>
<path d="M49.9899 41.9046C51.2822 46.3706 47.8652 51.2916 43.9484 52.4327C40.0317 53.5738 34.6806 51.2071 33.3883 46.7412C32.096 42.2752 34.8089 36.0874 38.7257 34.9463C43.9484 33.4247 48.6976 37.4387 49.9899 41.9046Z" fill="#222327"/>
<path d="M52.1436 41.9046C50.8513 46.3706 54.2683 51.2916 58.1851 52.4327C62.1019 53.5738 67.453 51.2071 68.7453 46.7412C70.0376 42.2752 67.3247 36.0874 63.4079 34.9463C58.1851 33.4247 53.4359 37.4387 52.1436 41.9046Z" fill="#222327"/>
<path d="M76.3971 74.5303C76.3971 85.8895 65.2589 90.1119 50.0657 90.1119C34.8725 90.1119 23.9863 85.8895 23.9863 74.5303C23.9863 61.317 34.8725 49.5996 50.0657 49.5996C65.2589 49.5996 76.3971 60.3198 76.3971 74.5303Z" fill="#F3D6DD"/>
<path d="M45.0362 72.2877C45.0362 76.008 42.6483 80.0893 39.3113 80.0893C35.9743 80.0893 30.5837 77.058 30.5837 71.5006C30.5837 66.28 36.4072 64.4233 42.4247 65.3767C46.1128 65.961 45.0362 68.5674 45.0362 72.2877Z" fill="#222327"/>
<path d="M42.245 71.9128C42.245 72.4708 42.0772 72.9232 41.238 72.9232C40.3988 72.9232 40.231 72.4708 40.231 71.9128C40.231 71.3547 40.5666 70.9023 41.238 70.9023C41.9093 70.9023 42.245 71.3547 42.245 71.9128Z" fill="white"/>
<path d="M55.1869 72.2877C55.1869 76.008 57.5749 80.0893 60.9119 80.0893C64.2488 80.0893 69.6394 77.058 69.6394 71.5006C69.6394 66.28 63.816 64.4233 57.7985 65.3767C54.1103 65.961 55.1869 68.5674 55.1869 72.2877Z" fill="#222327"/>
<path d="M57.9811 71.9128C57.9811 72.4708 58.1489 72.9232 58.9881 72.9232C59.8273 72.9232 59.9951 72.4708 59.9951 71.9128C59.9951 71.3547 59.6594 70.9023 58.9881 70.9023C58.3167 70.9023 57.9811 71.3547 57.9811 71.9128Z" fill="white"/>
<path d="M46.2653 77.6708C46.0621 77.3742 45.6569 77.2985 45.3603 77.5018C45.0638 77.705 44.9881 78.1101 45.1913 78.4067L46.2653 77.6708ZM49.9988 76.8701L50.6146 76.6591C50.5244 76.396 50.277 76.2192 49.9988 76.2192C49.7206 76.2192 49.4731 76.396 49.383 76.6591L49.9988 76.8701ZM54.8063 78.4067C55.0095 78.1101 54.9338 77.705 54.6372 77.5018C54.3406 77.2985 53.9355 77.3742 53.7323 77.6708L54.8063 78.4067ZM45.1913 78.4067C45.3711 78.6691 45.6978 79.021 46.1358 79.3116C46.5778 79.6048 47.1684 79.8583 47.8635 79.8583V78.5564C47.491 78.5564 47.1474 78.4204 46.8555 78.2267C46.5595 78.0303 46.3523 77.7979 46.2653 77.6708L45.1913 78.4067ZM47.8635 79.8583C48.719 79.8583 49.3553 79.2481 49.7513 78.7227C50.1694 78.1679 50.4649 77.5182 50.6146 77.0811L49.383 76.6591C49.2658 77.0012 49.0275 77.52 48.7116 77.9391C48.3736 78.3876 48.0757 78.5564 47.8635 78.5564V79.8583ZM49.383 77.0811C49.5327 77.5182 49.8282 78.1679 50.2463 78.7227C50.6423 79.2481 51.2786 79.8583 52.134 79.8583V78.5564C51.9219 78.5564 51.624 78.3876 51.286 77.9391C50.9701 77.52 50.7318 77.0012 50.6146 76.6591L49.383 77.0811ZM52.134 79.8583C52.8292 79.8583 53.4197 79.6048 53.8618 79.3116C54.2998 79.021 54.6264 78.6691 54.8063 78.4067L53.7323 77.6708C53.6452 77.7979 53.438 78.0303 53.1421 78.2267C52.8501 78.4204 52.5065 78.5564 52.134 78.5564V79.8583Z" fill="#222327"/>
<path d="M53.5528 76.2686C53.5528 76.8101 51.1146 77.4994 50.2941 77.716C50.1187 77.7623 49.9378 77.7623 49.7624 77.716C48.9419 77.4994 46.5037 76.8101 46.5037 76.2686C46.5037 75.6176 48.4525 74.9214 50.0283 74.9214C51.6041 74.9214 53.5528 75.6176 53.5528 76.2686Z" fill="#222327"/>
<path d="M49.6071 58.9483C39.8126 58.9483 36.2132 55.5073 35.6309 53.4947L40.2896 48.4307L50.3835 46.6777L64.3597 53.4947C63.5185 55.1178 59.4123 58.9483 49.6071 58.9483Z" fill="#222327"/>
<path fill-rule="evenodd" clip-rule="evenodd" d="M50.9623 95.7601C71.2024 95.7601 86.0404 90.0557 86.0404 74.7094C86.0404 55.5112 71.2024 41.0283 50.9623 41.0283C30.7223 41.0283 16.22 56.8584 16.22 74.7094C16.22 90.0557 30.7223 95.7601 50.9623 95.7601ZM50.1665 89.8667C65.0547 89.8667 75.9692 85.6894 75.9692 74.4511C75.9692 60.3921 65.0547 49.7862 50.1665 49.7862C35.2784 49.7862 24.6109 61.3787 24.6109 74.4511C24.6109 85.6894 35.2784 89.8667 50.1665 89.8667Z" fill="white"/>
<path d="M183.487 54.3351H191.448V63.6233H183.487V82.4651H171.545V70.7885C163.053 72.5135 154.627 73.4423 142.353 73.4423H128.421V64.3531H133.728V45.5113H129.748V36.5548H166.37V45.5113H162.389V63.358C165.64 62.9599 168.692 62.4955 171.545 61.9647V35.8914H183.487V54.3351ZM134.989 98.2551V78.5508H147.196V89.0332H184.814V98.2551H134.989ZM145.67 64.3531C147.329 64.2868 148.921 64.2868 150.447 64.2204V45.5113H145.67V64.3531ZM257.792 58.9792V68.2674H249.831V98.2551H237.889V87.839C229.397 90.2938 220.971 91.687 208.698 91.687H196.756V37.8817H230.724V46.8382H208.698V82.5978C220.839 82.5978 229.463 81.4036 237.889 79.0152V35.8914H249.831V58.9792H257.792ZM324.137 58.9792V68.2674H316.176V98.2551H304.234V35.8914H316.176V58.9792H324.137ZM263.1 91.687V37.8817H297.798V91.687H263.1ZM275.042 82.5978H285.989V46.9709H275.042V82.5978ZM374.89 35.8914H386.501V71.85H374.89V35.8914ZM325.464 64.7512C333.226 63.1589 339.064 60.7042 342.315 57.586L329.444 58.3821V49.7573H345.102V45.5113H330.771V36.5548H356.712V48.4968H360.494V36.2231H371.772V71.85H360.494V57.785H354.987C351.471 64.6185 342.647 70.2578 329.245 73.6413L325.464 64.7512ZM332.695 88.7679C349.082 88.1708 353.859 84.7872 353.859 79.0152V73.9731H365.801V80.0767C365.801 81.669 365.602 83.1949 365.204 84.5882C372.9 85.1189 380.53 86.1804 386.501 87.5737L383.316 98.2551C376.483 95.8667 366.929 93.5447 359.233 92.2841C353.726 95.9994 344.903 97.7907 333.956 98.2551L332.695 88.7679Z" fill="#3692FF"/>
</svg>
