<svg width="198" height="66" viewBox="0 0 198 66" fill="none" xmlns="http://www.w3.org/2000/svg">
<rect y="6.49219" width="51.7647" height="51.9399" rx="14.4658" fill="#3692FF"/>
<path d="M24.9953 20.955C25.6415 23.188 23.933 25.6485 21.9746 26.219C20.0162 26.7896 17.3407 25.6063 16.6945 23.3733C16.0483 21.1403 17.4048 18.0464 19.3632 17.4758C21.9746 16.715 24.3492 18.722 24.9953 20.955Z" fill="#222327"/>
<path d="M26.0721 20.955C25.4259 23.188 27.1344 25.6485 29.0928 26.219C31.0512 26.7896 33.7267 25.6063 34.3729 23.3733C35.019 21.1403 33.6626 18.0464 31.7042 17.4758C29.0928 16.715 26.7182 18.722 26.0721 20.955Z" fill="#222327"/>
<path d="M38.199 37.2671C38.199 42.9467 32.6299 45.0579 25.0333 45.0579C17.4367 45.0579 11.9937 42.9467 11.9937 37.2671C11.9937 30.6605 17.4367 24.8018 25.0333 24.8018C32.6299 24.8018 38.199 30.1618 38.199 37.2671Z" fill="#F3D6DD"/>
<path d="M22.5182 36.1453C22.5182 38.0055 21.3243 40.0461 19.6558 40.0461C17.9873 40.0461 15.292 38.5304 15.292 35.7518C15.292 33.1415 18.2037 32.2131 21.2125 32.6898C23.0565 32.982 22.5182 34.2852 22.5182 36.1453Z" fill="#222327"/>
<path d="M21.1227 35.9579C21.1227 36.2369 21.0388 36.4631 20.6192 36.4631C20.1996 36.4631 20.1157 36.2369 20.1157 35.9579C20.1157 35.6788 20.2836 35.4526 20.6192 35.4526C20.9549 35.4526 21.1227 35.6788 21.1227 35.9579Z" fill="white"/>
<path d="M27.5936 36.1453C27.5936 38.0055 28.7876 40.0461 30.456 40.0461C32.1245 40.0461 34.8198 38.5304 34.8198 35.7518C34.8198 33.1415 31.9081 32.2131 28.8994 32.6898C27.0553 32.982 27.5936 34.2852 27.5936 36.1453Z" fill="#222327"/>
<path d="M28.991 35.9579C28.991 36.2369 29.0749 36.4631 29.4945 36.4631C29.9141 36.4631 29.998 36.2369 29.998 35.9579C29.998 35.6788 29.8302 35.4526 29.4945 35.4526C29.1589 35.4526 28.991 35.6788 28.991 35.9579Z" fill="white"/>
<path d="M23.1332 38.8374C23.0316 38.6891 22.8291 38.6512 22.6808 38.7528C22.5325 38.8544 22.4946 39.057 22.5963 39.2053L23.1332 38.8374ZM25 38.437L25.3079 38.3315C25.2628 38.1999 25.1391 38.1115 25 38.1115C24.8609 38.1115 24.7372 38.1999 24.6921 38.3315L25 38.437ZM27.4037 39.2053C27.5053 39.057 27.4675 38.8544 27.3192 38.7528C27.1709 38.6512 26.9684 38.6891 26.8668 38.8374L27.4037 39.2053ZM22.5963 39.2053C22.6862 39.3365 22.8495 39.5124 23.0685 39.6577C23.2895 39.8044 23.5848 39.9311 23.9324 39.9311V39.2802C23.7461 39.2802 23.5743 39.2121 23.4284 39.1153C23.2804 39.0171 23.1768 38.9009 23.1332 38.8374L22.5963 39.2053ZM23.9324 39.9311C24.3601 39.9311 24.6782 39.626 24.8762 39.3633C25.0853 39.0859 25.233 38.761 25.3079 38.5425L24.6921 38.3315C24.6335 38.5025 24.5143 38.762 24.3564 38.9715C24.1874 39.1957 24.0384 39.2802 23.9324 39.2802V39.9311ZM24.6921 38.5425C24.767 38.761 24.9147 39.0859 25.1238 39.3633C25.3218 39.626 25.6399 39.9311 26.0676 39.9311V39.2802C25.9615 39.2802 25.8126 39.1957 25.6436 38.9715C25.4857 38.762 25.3665 38.5025 25.3079 38.3315L24.6921 38.5425ZM26.0676 39.9311C26.4152 39.9311 26.7105 39.8044 26.9315 39.6577C27.1505 39.5124 27.3138 39.3365 27.4037 39.2053L26.8668 38.8374C26.8232 38.9009 26.7196 39.0171 26.5716 39.1153C26.4257 39.2121 26.2539 39.2802 26.0676 39.2802V39.9311Z" fill="#222327"/>
<path d="M26.777 38.136C26.777 38.4068 25.5579 38.7514 25.1476 38.8597C25.0599 38.8828 24.9695 38.8828 24.8818 38.8597C24.4715 38.7514 23.2524 38.4068 23.2524 38.136C23.2524 37.8105 24.2268 37.4624 25.0147 37.4624C25.8026 37.4624 26.777 37.8105 26.777 38.136Z" fill="#222327"/>
<path d="M24.804 29.4761C19.9068 29.4761 18.1071 27.7556 17.8159 26.7493L20.1453 24.2173L25.1922 23.3408L32.1803 26.7493C31.7598 27.5609 29.7066 29.4761 24.804 29.4761Z" fill="#222327"/>
<path fill-rule="evenodd" clip-rule="evenodd" d="M25.4815 47.8825C35.6016 47.8825 43.0206 45.0303 43.0206 37.3572C43.0206 27.758 35.6016 20.5166 25.4815 20.5166C15.3615 20.5166 8.11035 28.4317 8.11035 37.3572C8.11035 45.0303 15.3615 47.8825 25.4815 47.8825ZM25.0837 44.9359C32.5277 44.9359 37.985 42.8472 37.985 37.2281C37.985 30.1986 32.5277 24.8956 25.0837 24.8956C17.6396 24.8956 12.3058 30.6919 12.3058 37.2281C12.3058 42.8472 17.6396 44.9359 25.0837 44.9359Z" fill="white"/>
<path d="M91.7431 27.6676H95.7238V32.3117H91.7431V41.7326H85.7721V35.8943C81.5261 36.7567 77.3132 37.2212 71.1764 37.2212H64.2102V32.6766H66.864V23.2557H64.8736V18.7774H83.1847V23.2557H81.1944V32.179C82.8198 31.9799 84.3457 31.7477 85.7721 31.4824V18.4457H91.7431V27.6676ZM67.4942 49.6276V39.7754H73.5979V45.0166H92.4066V49.6276H67.4942ZM72.835 32.6766C73.6643 32.6434 74.4604 32.6434 75.2234 32.6102V23.2557H72.835V32.6766ZM128.896 29.9896V34.6337H124.915V49.6276H118.944V44.4195C114.698 45.6469 110.485 46.3435 104.349 46.3435H98.3776V19.4409H115.362V23.9191H104.349V41.7989C110.419 41.7989 114.731 41.2018 118.944 40.0076V18.4457H124.915V29.9896H128.896ZM162.068 29.9896V34.6337H158.088V49.6276H152.117V18.4457H158.088V29.9896H162.068ZM131.55 46.3435V19.4409H148.899V46.3435H131.55ZM137.521 41.7989H142.994V23.9854H137.521V41.7989ZM187.445 18.4457H193.25V36.425H187.445V18.4457ZM162.732 32.8756C166.613 32.0795 169.532 30.8521 171.157 29.293L164.722 29.6911V25.3787H172.551V23.2557H165.385V18.7774H178.356V24.7484H180.247V18.6115H185.886V36.425H180.247V29.3925H177.493C175.735 32.8092 171.323 35.6289 164.622 37.3207L162.732 32.8756ZM166.347 44.8839C174.541 44.5854 176.929 42.8936 176.929 40.0076V37.4865H182.9V40.5384C182.9 41.3345 182.801 42.0975 182.602 42.7941C186.45 43.0595 190.265 43.5902 193.25 44.2868L191.658 49.6276C188.241 48.4334 183.464 47.2723 179.616 46.6421C176.863 48.4997 172.451 49.3954 166.978 49.6276L166.347 44.8839Z" fill="#3692FF"/>
</svg>
