<svg width="52" height="53" viewBox="0 0 52 53" fill="none" xmlns="http://www.w3.org/2000/svg">
<rect y="0.491699" width="51.7647" height="51.9399" rx="14.4658" fill="#3692FF"/>
<path d="M24.9948 14.9521C25.641 17.185 23.9325 19.6456 21.9741 20.2161C20.0157 20.7867 17.3402 19.6033 16.694 17.3704C16.0479 15.1374 17.4043 12.0434 19.3627 11.4729C21.9741 10.7121 24.3487 12.7191 24.9948 14.9521Z" fill="#222327"/>
<path d="M26.0721 14.9521C25.4259 17.185 27.1344 19.6456 29.0928 20.2161C31.0512 20.7867 33.7267 19.6033 34.3729 17.3704C35.019 15.1374 33.6626 12.0434 31.7042 11.4729C29.0928 10.7121 26.7182 12.7191 26.0721 14.9521Z" fill="#222327"/>
<path d="M38.198 31.2656C38.198 36.9453 32.629 39.0565 25.0324 39.0565C17.4358 39.0565 11.9927 36.9453 11.9927 31.2656C11.9927 24.659 17.4358 18.8003 25.0324 18.8003C32.629 18.8003 38.198 24.1604 38.198 31.2656Z" fill="#F3D6DD"/>
<path d="M22.5182 30.1438C22.5182 32.004 21.3243 34.0446 19.6558 34.0446C17.9873 34.0446 15.292 32.529 15.292 29.7503C15.292 27.14 18.2037 26.2117 21.2125 26.6883C23.0565 26.9805 22.5182 28.2837 22.5182 30.1438Z" fill="#222327"/>
<path d="M21.1227 29.9564C21.1227 30.2354 21.0388 30.4616 20.6192 30.4616C20.1996 30.4616 20.1157 30.2354 20.1157 29.9564C20.1157 29.6774 20.2836 29.4512 20.6192 29.4512C20.9549 29.4512 21.1227 29.6774 21.1227 29.9564Z" fill="white"/>
<path d="M27.5936 30.1443C27.5936 32.0045 28.7876 34.0451 30.456 34.0451C32.1245 34.0451 34.8198 32.5295 34.8198 29.7508C34.8198 27.1405 31.9081 26.2121 28.8994 26.6888C27.0553 26.981 27.5936 28.2842 27.5936 30.1443Z" fill="#222327"/>
<path d="M28.99 29.9569C28.99 30.2359 29.074 30.4621 29.4936 30.4621C29.9132 30.4621 29.9971 30.2359 29.9971 29.9569C29.9971 29.6779 29.8292 29.4517 29.4936 29.4517C29.1579 29.4517 28.99 29.6779 28.99 29.9569Z" fill="white"/>
<path d="M23.1323 32.8339C23.0307 32.6857 22.8281 32.6478 22.6798 32.7494C22.5315 32.851 22.4937 33.0536 22.5953 33.2019L23.1323 32.8339ZM24.999 32.4336L25.3069 32.3281C25.2618 32.1965 25.1381 32.1081 24.999 32.1081C24.8599 32.1081 24.7362 32.1965 24.6911 32.3281L24.999 32.4336ZM27.4028 33.2019C27.5044 33.0536 27.4665 32.851 27.3182 32.7494C27.17 32.6478 26.9674 32.6857 26.8658 32.8339L27.4028 33.2019ZM22.5953 33.2019C22.6852 33.3331 22.8485 33.509 23.0675 33.6543C23.2885 33.8009 23.5838 33.9277 23.9314 33.9277V33.2767C23.7451 33.2767 23.5733 33.2087 23.4274 33.1119C23.2794 33.0137 23.1758 32.8975 23.1323 32.8339L22.5953 33.2019ZM23.9314 33.9277C24.3591 33.9277 24.6773 33.6226 24.8753 33.3599C25.0843 33.0825 25.2321 32.7576 25.3069 32.5391L24.6911 32.3281C24.6325 32.4991 24.5134 32.7585 24.3554 32.9681C24.1864 33.1923 24.0375 33.2767 23.9314 33.2767V33.9277ZM24.6911 32.5391C24.766 32.7576 24.9137 33.0825 25.1228 33.3599C25.3208 33.6226 25.6389 33.9277 26.0666 33.9277V33.2767C25.9606 33.2767 25.8116 33.1923 25.6426 32.9681C25.4847 32.7585 25.3655 32.4991 25.3069 32.3281L24.6911 32.5391ZM26.0666 33.9277C26.4142 33.9277 26.7095 33.8009 26.9305 33.6543C27.1495 33.509 27.3128 33.3331 27.4028 33.2019L26.8658 32.8339C26.8222 32.8975 26.7187 33.0137 26.5707 33.1119C26.4247 33.2087 26.2529 33.2767 26.0666 33.2767V33.9277Z" fill="#222327"/>
<path d="M26.7756 32.1336C26.7756 32.4043 25.5565 32.7489 25.1462 32.8573C25.0585 32.8804 24.9681 32.8804 24.8804 32.8573C24.4701 32.7489 23.251 32.4043 23.251 32.1336C23.251 31.8081 24.2254 31.46 25.0133 31.46C25.8012 31.46 26.7756 31.8081 26.7756 32.1336Z" fill="#222327"/>
<path d="M24.803 23.4751C19.9058 23.4751 18.1061 21.7546 17.8149 20.7483L20.1443 18.2163L25.1913 17.3398L32.1794 20.7483C31.7588 21.5599 29.7057 23.4751 24.803 23.4751Z" fill="#222327"/>
<path fill-rule="evenodd" clip-rule="evenodd" d="M25.4811 41.8811C35.6011 41.8811 43.0201 39.0288 43.0201 31.3557C43.0201 21.7566 35.6011 14.5151 25.4811 14.5151C15.361 14.5151 8.10986 22.4302 8.10986 31.3557C8.10986 39.0288 15.361 41.8811 25.4811 41.8811ZM25.0827 38.9345C32.5268 38.9345 37.984 36.8458 37.984 31.2267C37.984 24.1972 32.5268 18.8942 25.0827 18.8942C17.6387 18.8942 12.3049 24.6905 12.3049 31.2267C12.3049 36.8458 17.6387 38.9345 25.0827 38.9345Z" fill="white"/>
</svg>
