<svg width="80" height="20" viewBox="0 0 80 20" fill="none" xmlns="http://www.w3.org/2000/svg">
<path d="M17.5757 6.36549H19.9999V9.19377H17.5757V14.9311H13.9394V11.3756C11.3535 11.9008 8.78785 12.1837 5.05049 12.1837H0.808078V9.41599H2.42424V3.67863H1.21212V0.951365H12.3636V3.67863H11.1515V9.11296C12.1414 8.99175 13.0707 8.85033 13.9394 8.68872V0.749346H17.5757V6.36549ZM2.80807 19.7392V13.7392H6.52523V16.9311H17.9797V19.7392H2.80807ZM6.06059 9.41599C6.56564 9.39579 7.05048 9.39579 7.51513 9.37558V3.67863H6.06059V9.41599ZM40.2019 7.77963V10.6079H37.7777V19.7392H34.1413V16.5675C31.5555 17.315 28.9898 17.7392 25.2524 17.7392H21.6161V1.35541H31.9595V4.08267H25.2524V14.9715C28.9494 14.9715 31.5757 14.6079 34.1413 13.8806V0.749346H37.7777V7.77963H40.2019ZM60.4039 7.77963V10.6079H57.9796V19.7392H54.3433V0.749346H57.9796V7.77963H60.4039ZM41.8181 17.7392V1.35541H52.3837V17.7392H41.8181ZM45.4544 14.9715H48.7877V4.12307H45.4544V14.9715ZM75.8584 0.749346H79.3937V11.6988H75.8584V0.749346ZM60.8079 9.5372C63.1715 9.05235 64.9493 8.30488 65.9392 7.35539L62.02 7.59781V4.97156H66.7877V3.67863H62.4241V0.951365H70.323V4.58772H71.4745V0.850355H74.9089V11.6988H71.4745V7.41599H69.7978C68.7271 9.49679 66.0402 11.214 61.9594 12.2443L60.8079 9.5372ZM63.0099 16.8503C67.9998 16.6685 69.4543 15.6382 69.4543 13.8806V12.3453H73.0907V14.2039C73.0907 14.6887 73.0301 15.1533 72.9089 15.5776C75.2523 15.7392 77.5755 16.0624 79.3937 16.4867L78.424 19.7392C76.3432 19.0119 73.4341 18.3048 71.0907 17.921C69.4139 19.0523 66.7271 19.5978 63.3938 19.7392L63.0099 16.8503Z" fill="#3692FF"/>
</svg>
