<svg width="80" height="20" viewBox="0 0 80 20" fill="none" xmlns="http://www.w3.org/2000/svg">
<path d="M17.5757 6.36545H19.9999V9.19372H17.5757V14.9311H13.9394V11.3755C11.3535 11.9008 8.78785 12.1836 5.05049 12.1836H0.808078V9.41594H2.42424V3.67858H1.21212V0.951319H12.3636V3.67858H11.1515V9.11291C12.1414 8.9917 13.0707 8.85029 13.9394 8.68867V0.7493H17.5757V6.36545ZM2.80807 19.7391V13.7392H6.52523V16.9311H17.9797V19.7391H2.80807ZM6.06059 9.41594C6.56564 9.39574 7.05048 9.39574 7.51513 9.37554V3.67858H6.06059V9.41594ZM40.2019 7.77958V10.6079H37.7777V19.7391H34.1413V16.5674C31.5555 17.3149 28.9898 17.7391 25.2524 17.7391H21.6161V1.35536H31.9595V4.08262H25.2524V14.9715C28.9494 14.9715 31.5757 14.6078 34.1413 13.8806V0.7493H37.7777V7.77958H40.2019ZM60.4039 7.77958V10.6079H57.9796V19.7391H54.3433V0.7493H57.9796V7.77958H60.4039ZM41.8181 17.7391V1.35536H52.3837V17.7391H41.8181ZM45.4544 14.9715H48.7877V4.12303H45.4544V14.9715ZM75.8584 0.7493H79.3937V11.6988H75.8584V0.7493ZM60.8079 9.53715C63.1715 9.05231 64.9493 8.30483 65.9392 7.35534L62.02 7.59776V4.97151H66.7877V3.67858H62.4241V0.951319H70.323V4.58767H71.4745V0.85031H74.9089V11.6988H71.4745V7.41595H69.7978C68.7271 9.49675 66.0402 11.2139 61.9594 12.2442L60.8079 9.53715ZM63.0099 16.8503C67.9998 16.6684 69.4543 15.6381 69.4543 13.8806V12.3452H73.0907V14.2038C73.0907 14.6887 73.0301 15.1533 72.9089 15.5775C75.2523 15.7392 77.5755 16.0624 79.3937 16.4866L78.424 19.7391C76.3432 19.0119 73.4341 18.3048 71.0907 17.921C69.4139 19.0523 66.7271 19.5977 63.3938 19.7391L63.0099 16.8503Z" fill="#3692FF"/>
</svg>
