<svg width="100" height="25" viewBox="0 0 100 25" fill="none" xmlns="http://www.w3.org/2000/svg">
<path d="M21.3008 7.38853H24.3767V10.9772H21.3008V18.257H16.6868V13.7455C13.4058 14.412 10.1504 14.7709 5.40827 14.7709H0.0253227V11.2591H2.07597V3.97933H0.537984V0.518868H14.6874V3.97933H13.1495V10.8746C14.4055 10.7208 15.5846 10.5414 16.6868 10.3363V0.262538H21.3008V7.38853ZM2.563 24.3576V16.7446H7.27948V20.7946H21.8134V24.3576H2.563ZM6.68992 11.2591C7.33075 11.2335 7.94594 11.2335 8.5355 11.2079V3.97933H6.68992V11.2591ZM50.0098 9.18285V12.7715H46.9338V24.3576H42.3199V20.3332C39.0389 21.2817 35.7835 21.8199 31.0413 21.8199H26.4274V1.03153H39.5515V4.49199H31.0413V18.3082C35.7322 18.3082 39.0645 17.8468 42.3199 16.924V0.262538H46.9338V9.18285H50.0098ZM75.6429 9.18285V12.7715H72.5669V24.3576H67.9529V0.262538H72.5669V9.18285H75.6429ZM52.0604 21.8199V1.03153H65.4665V21.8199H52.0604ZM56.6744 18.3082H60.9039V4.54326H56.6744V18.3082ZM95.2522 0.262538H99.738V14.1557H95.2522V0.262538ZM76.1555 11.4129C79.1546 10.7977 81.4103 9.84931 82.6663 8.64455L77.6935 8.95215V5.61985H83.7429V3.97933H78.2062V0.518868H88.2287V5.13282H89.6898V0.390703H94.0474V14.1557H89.6898V8.72145H87.5622C86.2037 11.3617 82.7945 13.5405 77.6166 14.8478L76.1555 11.4129ZM78.9495 20.6921C85.2809 20.4614 87.1265 19.1541 87.1265 16.924V14.9759H91.7404V17.3342C91.7404 17.9494 91.6635 18.5389 91.5097 19.0772C94.4832 19.2823 97.431 19.6924 99.738 20.2307L98.5076 24.3576C95.8674 23.4348 92.1762 22.5377 89.2028 22.0506C87.0752 23.4861 83.666 24.1782 79.4366 24.3576L78.9495 20.6921Z" fill="#3692FF"/>
</svg>
